<svg height="512" viewBox="0 0 58 60" width="512" xmlns="http://www.w3.org/2000/svg"><g id="Page-1" fill="none" fill-rule="evenodd"><g id="012---Notification" fill-rule="nonzero"><path id="Shape" d="m28 4v3.25c-1.9861173-.33668267-4.015016-.33330117-6 .01v-3.26c0-1.65685421 1.3431458-2.99999991 3-2.99999991s3 1.3431457 3 2.99999991z" fill="#e8edfc"/><path id="Shape" d="m45 46h-40l1.32-7.27c.45117709-2.4812764.67875661-4.9980381.68-7.52v-6.21c-.00051737-8.7820041 6.3400719-16.28080772 15-17.74 1.984984-.34330117 4.0138827-.34668267 6-.01 3.3103077.55766358 6.3974951 2.03369257 8.91 4.26-5.2806751 2.7948066-7.9765008 8.8291361-6.5346776 14.6272065 1.4418231 5.7980704 6.6500264 9.8668818 12.6246776 9.8627935.0934449.0016631.1869118-.001675.28-.01.1.91.23 1.83.4 2.74z" fill="#e8edfc"/><path id="Shape" d="m43.68 38.73c-.17-.91-.3-1.83-.4-2.74-.0930882.008325-.1865551.0116631-.28.01-5.9746512.0040883-11.1828545-4.0647231-12.6246776-9.8627935-1.4418232-5.7980704 1.2540025-11.8323999 6.5346776-14.6272065-2.5125049-2.22630743-5.5996923-3.70233642-8.91-4.26-.9909226-.16966603-1.9946627-.25331104-3-.25-.491 0-.979.023-1.461.064.494.041.982.1 1.461.186 3.3103077.55766358 6.3974951 2.03369257 8.91 4.26-5.2806751 2.7948066-7.9765008 8.8291361-6.5346776 14.6272065 1.4418231 5.7980704 6.6500264 9.8668818 12.6246776 9.8627935.0934449.0016631.1869118-.001675.28-.01.1.91.23 1.83.4 2.74l1.32 7.27h3z" fill="#cad9fc"/><path id="Shape" d="m49 50c.0013291 1.0612728-.4196715 2.0794609-1.1701053 2.8298947s-1.7686219 1.1714344-2.8298947 1.1701053h-40c-2.209139 0-4-1.790861-4-4s1.790861-4 4-4h40c2.209139 0 4 1.790861 4 4z" fill="#e8edfc"/><path id="Shape" d="m45 46h-3c2.209139 0 4 1.790861 4 4s-1.790861 4-4 4h3c2.209139 0 4-1.790861 4-4s-1.790861-4-4-4z" fill="#cad9fc"/><path id="Shape" d="m30 54c0 2.7614237-2.2385763 5-5 5s-5-2.2385763-5-5z" fill="#c6d8fb"/><path id="Shape" d="m27 54c.0223832 2.1855391-1.4054214 4.1216421-3.5 4.746.483963.1613003.9899132.2469745 1.5.254 1.3273046.0039999 2.6013996-.5214997 3.5399499-1.4600501.9385504-.9385503 1.46405-2.2126453 1.4600728-3.5399499z" fill="#a4c3fd"/><path id="Shape" d="m56 23c.0036615 7.070917-5.6505656 12.8451631-12.72 12.99-.0930882.008325-.1865551.0116631-.28.01-7.1797017 0-13-5.8202983-13-13s5.8202983-13 13-13 13 5.8202983 13 13z" fill="#c6d8fb"/><path id="Shape" d="m43 10c-.5013727.0021196-1.0022053.0331712-1.5.093 6.5572575.7561281 11.5051483 6.309304 11.5028468 12.9100123s-4.9540637 12.1504325-11.5118468 12.9019877c.5007234.060997 1.0045801.0927176 1.509.095.0934449.0016631.1869118-.001675.28-.01 7.0456329-.2560924 12.6029885-6.0815903 12.5270376-13.1314667-.075951-7.0498765-5.7575227-12.7542932-12.8070376-12.8585333z" fill="#a4c3fd"/><path id="Shape" d="m5 54h3c-2.209139 0-4-1.790861-4-4s1.790861-4 4-4l1.32-7.27c.45117709-2.4812764.67875661-4.9980381.68-7.52v-6.21c-.00051737-8.7820041 6.3400719-16.28080772 15-17.74v-3.26c.0017261-1.06765465.5737353-2.05303572 1.5-2.584-.4539503-.26996371-.9718471-.41359374-1.5-.416-1.6568542 0-3 1.34314575-3 3v3.26c-8.6599281 1.45919228-15.00051737 8.9579959-15 17.74v6.21c-.00124339 2.5219619-.22882291 5.0387236-.68 7.52l-1.32 7.27c-2.209139 0-4 1.790861-4 4s1.790861 4 4 4z" fill="#fff"/><path id="Shape" d="m23 54h-3c.0061762 2.1762059 1.4227761 4.0971154 3.5 4.746.2240358.0732619.4529297.130736.685.172.268501.052784.5413655.0802379.815.082.5100608-.0073114 1.0159675-.0929783 1.5-.254-2.0772239-.6488846-3.4938238-2.5697941-3.5-4.746z" fill="#fff"/><path id="Shape" d="m5.438 37.963 1.973.329-1.427 7.887-1.968-.358z" fill="#fff"/><g fill="#428dff"><path id="Shape" d="m11 26c-.5522847 0-1-.4477153-1-1-.00903899-4.601925 2.1052193-8.9507293 5.73-11.786.2808108-.2211474.6582713-.2756853.990196-.1430697.3319246.1326155.5678861.432237.619.786.0511139.3537629-.0903852.7079223-.371196.9290697-3.1420634 2.4567273-4.9751683 6.225514-4.968 10.214 0 .5522847-.4477153 1-1 1z"/><path id="Shape" d="m5.734 43.064c-.55228475.0027614-1.00223858-.4427153-1.005-.995s.44271525-1.0022386.995-1.005h.01c.55228475 0 1 .4477153 1 1s-.44771525 1-1 1z"/><path id="Shape" d="m0 50c.00330612 2.7600532 2.23994685 4.9966939 5 5h14.09c.4853307 2.8857455 2.9837271 4.9990438 5.91 4.9990438s5.4246693-2.1132983 5.91-4.9990438h14.09c2.5941999.0026726 4.758286-1.9817569 4.9798929-4.5664756s-1.5730991-4.9085645-4.1298929-5.3475244l-1.187-6.54c-.1-.512-.179-1.057-.256-1.617 5.55643-.5405263 10.2606385-4.3305209 11.9711439-9.644677 1.7105054-5.314156.1003241-11.1366084-4.0975464-14.8168213-4.1978705-3.68021278-10.1809566-4.51466895-15.2255975-2.1235017-2.3347758-1.92499423-5.0969292-3.26234968-8.055-3.9v-2.444c0-2.209139-1.790861-4-4-4s-4 1.790861-4 4v2.432c-8.7433605 1.89338495-14.98684838 9.6219904-15 18.568v6.21c-.00155382 2.2626145-.18952299 4.5212546-.562 6.753-.08558187.5403488.27504695 1.0504633.813 1.15.26311458.0482973.53458643-.0116079.75294079-.16615.21835436-.1545422.36511904-.3906475.40705921-.65485.39056794-2.3404756.58756814-4.7091605.589-7.082v-6.21c-.00378946-6.4352631 3.629403-12.3200883 9.3842615-15.20005871 5.7548585-2.8799704 12.6430734-2.26049478 17.7917385 1.60005871-5.0099304 3.3753515-7.2860863 9.5861655-5.6436485 15.3994949 1.6424377 5.8133294 6.8321256 9.9148214 12.8676485 10.1695051.088.674.185 1.331.3 1.94l1.1 6.091h-38.8c-2.76005315.0033061-4.99669388 2.2399468-5 5zm23-43.893v-2.107c0-1.1045695.8954305-2 2-2s2 .8954305 2 2v2.116c-1.3288547-.15165747-2.6704763-.15467612-4-.009zm2 51.893c-1.8232868-.0027059-3.4151099-1.2354032-3.874-3h7.748c-.4588901 1.7645968-2.0507132 2.9972941-3.874 3zm6-35c0-6.627417 5.372583-12 12-12s12 5.372583 12 12-5.372583 12-12 12c-6.624447-.0071648-11.9928352-5.375553-12-12zm-26 24h40c1.6568542.0000001 2.9999999 1.3431458 2.9999999 3s-1.3431457 2.9999999-2.9999999 3h-40c-1.65685425 0-3-1.3431458-3-3s1.34314575-3 3-3z"/><path id="Shape" d="m45 31c.5522847 0 1-.4477153 1-1s-.4477153-1-1-1h-1v-13c-.0000863-.4043959-.2437275-.7689341-.6173454-.923678-.373618-.1547439-.8036603-.0692299-1.0896546.216678l-2 2c-.3789722.3923789-.3735524 1.0160848.0121814 1.4018186s1.0094397.3911536 1.4018186.0121814l.293-.293v10.586h-1c-.5522847 0-1 .4477153-1 1s.4477153 1 1 1z"/></g></g></g></svg>